<?xml version="1.0" encoding="UTF-8" standalone="no"?>
<!DOCTYPE svg PUBLIC "-//W3C//DTD SVG 1.1//EN"
 "http://www.w3.org/Graphics/SVG/1.1/DTD/svg11.dtd">
<!-- Generated by graphviz version 2.40.1 (20161225.0304)
 -->
<!-- Title: TrustDurableIntake Pages: 1 -->
<svg width="791pt" height="1583pt"
 viewBox="0.00 0.00 791.14 1582.75" xmlns="http://www.w3.org/2000/svg" xmlns:xlink="http://www.w3.org/1999/xlink">
<g id="graph0" class="graph" transform="scale(1 1) rotate(0) translate(25.2 1557.55)">
<title>TrustDurableIntake</title>
<polygon fill="#f8fafc" stroke="transparent" points="-25.2,25.2 -25.2,-1557.55 765.938,-1557.55 765.938,25.2 -25.2,25.2"/>
<text text-anchor="middle" x="370.369" y="-1503.15" font-family="Arial" font-size="28.00" fill="#000000">② 信任 + 落盘 · Durable Intake、并发控制与入站过滤</text>
<!-- input -->
<g id="node1" class="node">
<title>input</title>
<path fill="#dbeafe" stroke="#93c5fd" stroke-width="1.5" d="M605.8309,-1490.6503C605.8309,-1490.6503 450.8901,-1490.6503 450.8901,-1490.6503 444.8901,-1490.6503 438.8901,-1484.6503 438.8901,-1478.6503 438.8901,-1478.6503 438.8901,-1440.0497 438.8901,-1440.0497 438.8901,-1434.0497 444.8901,-1428.0497 450.8901,-1428.0497 450.8901,-1428.0497 605.8309,-1428.0497 605.8309,-1428.0497 611.8309,-1428.0497 617.8309,-1434.0497 617.8309,-1440.0497 617.8309,-1440.0497 617.8309,-1478.6503 617.8309,-1478.6503 617.8309,-1484.6503 611.8309,-1490.6503 605.8309,-1490.6503"/>
<text text-anchor="middle" x="528.3605" y="-1471.05" font-family="Arial" font-size="13.00" fill="#000000">阶段 ① 输出</text>
<text text-anchor="middle" x="528.3605" y="-1455.45" font-family="Arial" font-size="13.00" fill="#000000">已验签 JSON</text>
<text text-anchor="middle" x="528.3605" y="-1439.85" font-family="Arial" font-size="13.00" fill="#000000">event_id + conversation_id</text>
</g>
<!-- enqueue -->
<g id="node2" class="node">
<title>enqueue</title>
<path fill="#e0e7ff" stroke="#93c5fd" stroke-width="1.5" d="M644.4036,-1378.95C644.4036,-1378.95 412.3174,-1378.95 412.3174,-1378.95 406.3174,-1378.95 400.3174,-1372.95 400.3174,-1366.95 400.3174,-1366.95 400.3174,-1296.95 400.3174,-1296.95 400.3174,-1290.95 406.3174,-1284.95 412.3174,-1284.95 412.3174,-1284.95 644.4036,-1284.95 644.4036,-1284.95 650.4036,-1284.95 656.4036,-1290.95 656.4036,-1296.95 656.4036,-1296.95 656.4036,-1366.95 656.4036,-1366.95 656.4036,-1372.95 650.4036,-1378.95 644.4036,-1378.95"/>
<text text-anchor="middle" x="528.3605" y="-1359.25" font-family="Arial" font-size="13.00" fill="#000000">enqueue_webhook()</text>
<text text-anchor="middle" x="528.3605" y="-1343.65" font-family="Arial" font-size="13.00" fill="#000000">INSERT webhook_inbox</text>
<text text-anchor="middle" x="528.3605" y="-1328.05" font-family="Arial" font-size="13.00" fill="#000000">ON CONFLICT(event_id) DO NOTHING</text>
<text text-anchor="middle" x="528.3605" y="-1312.45" font-family="Arial" font-size="13.00" fill="#000000">status=pending · attempts=0</text>
<text text-anchor="middle" x="528.3605" y="-1296.85" font-family="Arial" font-size="13.00" fill="#000000">available_at=now</text>
</g>
<!-- input&#45;&gt;enqueue -->
<g id="edge1" class="edge">
<title>input&#45;&gt;enqueue</title>
<path fill="none" stroke="#2563eb" stroke-width="1.8" d="M528.3605,-1427.8579C528.3605,-1415.5386 528.3605,-1401.0384 528.3605,-1387.0951"/>
<polygon fill="#2563eb" stroke="#2563eb" stroke-width="1.8" points="531.0906,-1386.7705 528.3605,-1378.9706 525.6306,-1386.7706 531.0906,-1386.7705"/>
</g>
<!-- commit -->
<g id="node3" class="node">
<title>commit</title>
<path fill="#ede9fe" stroke="#a78bfa" stroke-width="1.5" d="M613.257,-1228.2438C613.257,-1232.5929 575.205,-1236.1257 528.3605,-1236.1257 481.516,-1236.1257 443.4641,-1232.5929 443.4641,-1228.2438 443.4641,-1228.2438 443.4641,-1157.3062 443.4641,-1157.3062 443.4641,-1152.9571 481.516,-1149.4243 528.3605,-1149.4243 575.205,-1149.4243 613.257,-1152.9571 613.257,-1157.3062 613.257,-1157.3062 613.257,-1228.2438 613.257,-1228.2438"/>
<path fill="none" stroke="#a78bfa" stroke-width="1.5" d="M613.257,-1228.2438C613.257,-1223.8946 575.205,-1220.3618 528.3605,-1220.3618 481.516,-1220.3618 443.4641,-1223.8946 443.4641,-1228.2438"/>
<text text-anchor="middle" x="528.3605" y="-1204.475" font-family="Arial" font-size="13.00" fill="#000000">独立 DB Session Commit</text>
<text text-anchor="middle" x="528.3605" y="-1188.875" font-family="Arial" font-size="13.00" fill="#000000">认证事件先持久化</text>
<text text-anchor="middle" x="528.3605" y="-1173.275" font-family="Arial" font-size="13.00" fill="#000000">再做任何业务处理</text>
</g>
<!-- enqueue&#45;&gt;commit -->
<g id="edge2" class="edge">
<title>enqueue&#45;&gt;commit</title>
<path fill="none" stroke="#2563eb" stroke-width="1.8" d="M528.3605,-1284.8317C528.3605,-1271.7707 528.3605,-1257.5267 528.3605,-1244.2318"/>
<polygon fill="#2563eb" stroke="#2563eb" stroke-width="1.8" points="531.0906,-1243.8955 528.3605,-1236.0955 525.6306,-1243.8956 531.0906,-1243.8955"/>
</g>
<!-- status -->
<g id="node4" class="node">
<title>status</title>
<path fill="#fef3c7" stroke="#f59e0b" stroke-width="1.5" d="M516.7885,-1097.5243C516.7885,-1097.5243 424.4318,-1072.1761 424.4318,-1072.1761 418.6458,-1070.588 418.6458,-1067.412 424.4318,-1065.8239 424.4318,-1065.8239 516.7885,-1040.4757 516.7885,-1040.4757 522.5745,-1038.8877 534.1466,-1038.8877 539.9326,-1040.4757 539.9326,-1040.4757 632.2892,-1065.8239 632.2892,-1065.8239 638.0752,-1067.412 638.0752,-1070.588 632.2892,-1072.1761 632.2892,-1072.1761 539.9326,-1097.5243 539.9326,-1097.5243 534.1466,-1099.1123 522.5745,-1099.1123 516.7885,-1097.5243"/>
<text text-anchor="middle" x="528.3605" y="-1065.1" font-family="Arial" font-size="13.00" fill="#000000">当前 Status？</text>
</g>
<!-- commit&#45;&gt;status -->
<g id="edge3" class="edge">
<title>commit&#45;&gt;status</title>
<path fill="none" stroke="#2563eb" stroke-width="1.8" d="M528.3605,-1149.4845C528.3605,-1136.2063 528.3605,-1121.669 528.3605,-1108.647"/>
<polygon fill="#2563eb" stroke="#2563eb" stroke-width="1.8" points="531.0906,-1108.5596 528.3605,-1100.7596 525.6306,-1108.5596 531.0906,-1108.5596"/>
</g>
<!-- lock -->
<g id="node5" class="node">
<title>lock</title>
<path fill="#dbeafe" stroke="#93c5fd" stroke-width="1.5" d="M552.0138,-977.3003C552.0138,-977.3003 340.7073,-977.3003 340.7073,-977.3003 334.7073,-977.3003 328.7073,-971.3003 328.7073,-965.3003 328.7073,-965.3003 328.7073,-926.6997 328.7073,-926.6997 328.7073,-920.6997 334.7073,-914.6997 340.7073,-914.6997 340.7073,-914.6997 552.0138,-914.6997 552.0138,-914.6997 558.0138,-914.6997 564.0138,-920.6997 564.0138,-926.6997 564.0138,-926.6997 564.0138,-965.3003 564.0138,-965.3003 564.0138,-971.3003 558.0138,-977.3003 552.0138,-977.3003"/>
<text text-anchor="middle" x="446.3605" y="-957.7" font-family="Arial" font-size="13.00" fill="#000000">并发门控</text>
<text text-anchor="middle" x="446.3605" y="-942.1" font-family="Arial" font-size="13.00" fill="#000000">每 conversation_id 一个 asyncio.Lock</text>
<text text-anchor="middle" x="446.3605" y="-926.5" font-family="Arial" font-size="13.00" fill="#000000">全局 Semaphore=2</text>
</g>
<!-- status&#45;&gt;lock -->
<g id="edge5" class="edge">
<title>status&#45;&gt;lock</title>
<path fill="none" stroke="#2563eb" stroke-width="1.8" d="M501.1687,-1044.4512C484.6707,-1029.5567 466.7745,-1013.4 466.7745,-1013.4 466.7745,-1013.4 462.7186,-1000.0087 458.2225,-985.1642"/>
<polygon fill="#2563eb" stroke="#2563eb" stroke-width="1.8" points="460.7242,-984.0059 455.8504,-977.3322 455.4987,-985.5887 460.7242,-984.0059"/>
<text text-anchor="middle" x="527.6535" y="-1004.4" font-family="Arial" font-size="10.00" fill="#000000">pending / retry / processing</text>
</g>
<!-- already -->
<g id="node12" class="node">
<title>already</title>
<path fill="#f1f5f9" stroke="#94a3b8" stroke-width="1.5" d="M641.726,-379.3004C641.726,-379.3004 526.9951,-379.3004 526.9951,-379.3004 520.9951,-379.3004 514.9951,-373.3004 514.9951,-367.3004 514.9951,-367.3004 514.9951,-343.8996 514.9951,-343.8996 514.9951,-337.8996 520.9951,-331.8996 526.9951,-331.8996 526.9951,-331.8996 641.726,-331.8996 641.726,-331.8996 647.726,-331.8996 653.726,-337.8996 653.726,-343.8996 653.726,-343.8996 653.726,-367.3004 653.726,-367.3004 653.726,-373.3004 647.726,-379.3004 641.726,-379.3004"/>
<text text-anchor="middle" x="584.3605" y="-359.5" font-family="Arial" font-size="13.00" fill="#000000">already_processed</text>
<text text-anchor="middle" x="584.3605" y="-343.9" font-family="Arial" font-size="13.00" fill="#000000">不重复执行副作用</text>
</g>
<!-- status&#45;&gt;already -->
<g id="edge4" class="edge">
<title>status&#45;&gt;already</title>
<path fill="none" stroke="#2563eb" stroke-width="1.8" d="M555.7351,-1044.4512C572.344,-1029.5567 590.3605,-1013.4 590.3605,-1013.4 590.3605,-1013.4 610.3605,-946 610.3605,-946 610.3605,-946 610.3605,-946 610.3605,-541.2 610.3605,-541.2 596.2178,-440.2429 588.7937,-387.2464"/>
<polygon fill="#2563eb" stroke="#2563eb" stroke-width="1.8" points="591.4921,-386.8298 587.7063,-379.484 586.0849,-387.5873 591.4921,-386.8298"/>
<text text-anchor="middle" x="633.4225" y="-738.6" font-family="Arial" font-size="10.00" fill="#000000">processed</text>
</g>
<!-- claim -->
<g id="node6" class="node">
<title>claim</title>
<path fill="#e0e7ff" stroke="#93c5fd" stroke-width="1.5" d="M547.6563,-865.6C547.6563,-865.6 345.0647,-865.6 345.0647,-865.6 339.0647,-865.6 333.0647,-859.6 333.0647,-853.6 333.0647,-853.6 333.0647,-783.6 333.0647,-783.6 333.0647,-777.6 339.0647,-771.6 345.0647,-771.6 345.0647,-771.6 547.6563,-771.6 547.6563,-771.6 553.6563,-771.6 559.6563,-777.6 559.6563,-783.6 559.6563,-783.6 559.6563,-853.6 559.6563,-853.6 559.6563,-859.6 553.6563,-865.6 547.6563,-865.6"/>
<text text-anchor="middle" x="446.3605" y="-845.9" font-family="Arial" font-size="13.00" fill="#000000">原子 Claim</text>
<text text-anchor="middle" x="446.3605" y="-830.3" font-family="Arial" font-size="13.00" fill="#000000">仅 pending/retry 到期或 Lease 过期</text>
<text text-anchor="middle" x="446.3605" y="-814.7" font-family="Arial" font-size="13.00" fill="#000000">attempts &lt; 6</text>
<text text-anchor="middle" x="446.3605" y="-799.1" font-family="Arial" font-size="13.00" fill="#000000">→ processing · attempts+1</text>
<text text-anchor="middle" x="446.3605" y="-783.5" font-family="Arial" font-size="13.00" fill="#000000">UUID lease_token · 15m lease</text>
</g>
<!-- lock&#45;&gt;claim -->
<g id="edge6" class="edge">
<title>lock&#45;&gt;claim</title>
<path fill="none" stroke="#2563eb" stroke-width="1.8" d="M446.3605,-914.5079C446.3605,-902.1886 446.3605,-887.6884 446.3605,-873.7451"/>
<polygon fill="#2563eb" stroke="#2563eb" stroke-width="1.8" points="449.0906,-873.4205 446.3605,-865.6206 443.6306,-873.4206 449.0906,-873.4205"/>
</g>
<!-- claimed -->
<g id="node7" class="node">
<title>claimed</title>
<path fill="#fef3c7" stroke="#f59e0b" stroke-width="1.5" d="M434.8919,-708.1688C434.8919,-708.1688 354.883,-683.5315 354.883,-683.5315 349.1487,-681.7658 349.1487,-678.2342 354.883,-676.4685 354.883,-676.4685 434.8919,-651.8312 434.8919,-651.8312 440.6262,-650.0654 452.0948,-650.0654 457.8291,-651.8312 457.8291,-651.8312 537.838,-676.4685 537.838,-676.4685 543.5723,-678.2342 543.5723,-681.7658 537.838,-683.5315 537.838,-683.5315 457.8291,-708.1688 457.8291,-708.1688 452.0948,-709.9346 440.6262,-709.9346 434.8919,-708.1688"/>
<text text-anchor="middle" x="446.3605" y="-676.1" font-family="Arial" font-size="13.00" fill="#000000">Claim 成功？</text>
</g>
<!-- claim&#45;&gt;claimed -->
<g id="edge7" class="edge">
<title>claim&#45;&gt;claimed</title>
<path fill="none" stroke="#2563eb" stroke-width="1.8" d="M446.3605,-771.2894C446.3605,-754.5944 446.3605,-735.9999 446.3605,-719.9719"/>
<polygon fill="#2563eb" stroke="#2563eb" stroke-width="1.8" points="449.0906,-719.6479 446.3605,-711.8479 443.6306,-719.6479 449.0906,-719.6479"/>
</g>
<!-- event_dedupe -->
<g id="node8" class="node">
<title>event_dedupe</title>
<path fill="#fef3c7" stroke="#f59e0b" stroke-width="1.5" d="M238.1586,-584.2976C238.1586,-584.2976 137.1717,-545.5032 137.1717,-545.5032 131.5708,-543.3516 131.5708,-539.0484 137.1717,-536.8968 137.1717,-536.8968 238.1586,-498.1024 238.1586,-498.1024 243.7596,-495.9508 254.9615,-495.9508 260.5624,-498.1024 260.5624,-498.1024 361.5494,-536.8968 361.5494,-536.8968 367.1503,-539.0484 367.1503,-543.3516 361.5494,-545.5032 361.5494,-545.5032 260.5624,-584.2976 260.5624,-584.2976 254.9615,-586.4492 243.7596,-586.4492 238.1586,-584.2976"/>
<text text-anchor="middle" x="249.3605" y="-545.1" font-family="Arial" font-size="13.00" fill="#000000">webhook_events</text>
<text text-anchor="middle" x="249.3605" y="-529.5" font-family="Arial" font-size="13.00" fill="#000000">已有 event_id？</text>
</g>
<!-- claimed&#45;&gt;event_dedupe -->
<g id="edge9" class="edge">
<title>claimed&#45;&gt;event_dedupe</title>
<path fill="none" stroke="#2563eb" stroke-width="1.8" d="M414.7091,-657.6994C383.6845,-635.8404 335.9072,-602.1781 299.6734,-576.6489"/>
<polygon fill="#2563eb" stroke="#2563eb" stroke-width="1.8" points="300.9974,-574.2422 293.0487,-571.9813 297.8526,-578.7056 300.9974,-574.2422"/>
<text text-anchor="middle" x="371.6395" y="-615.4" font-family="Arial" font-size="10.00" fill="#000000">是</text>
</g>
<!-- queued -->
<g id="node13" class="node">
<title>queued</title>
<path fill="#f1f5f9" stroke="#94a3b8" stroke-width="1.5" d="M552.819,-572.5003C552.819,-572.5003 413.9021,-572.5003 413.9021,-572.5003 407.9021,-572.5003 401.9021,-566.5003 401.9021,-560.5003 401.9021,-560.5003 401.9021,-521.8997 401.9021,-521.8997 401.9021,-515.8997 407.9021,-509.8997 413.9021,-509.8997 413.9021,-509.8997 552.819,-509.8997 552.819,-509.8997 558.819,-509.8997 564.819,-515.8997 564.819,-521.8997 564.819,-521.8997 564.819,-560.5003 564.819,-560.5003 564.819,-566.5003 558.819,-572.5003 552.819,-572.5003"/>
<text text-anchor="middle" x="483.3605" y="-552.9" font-family="Arial" font-size="13.00" fill="#000000">queued</text>
<text text-anchor="middle" x="483.3605" y="-537.3" font-family="Arial" font-size="13.00" fill="#000000">其他 Worker 持有 Lease</text>
<text text-anchor="middle" x="483.3605" y="-521.7" font-family="Arial" font-size="13.00" fill="#000000">或尚未到重试时间</text>
</g>
<!-- claimed&#45;&gt;queued -->
<g id="edge8" class="edge">
<title>claimed&#45;&gt;queued</title>
<path fill="none" stroke="#2563eb" stroke-width="1.8" d="M454.2073,-650.5641C459.6723,-630.063 467.0187,-602.5039 472.9696,-580.1802"/>
<polygon fill="#2563eb" stroke="#2563eb" stroke-width="1.8" points="475.6396,-580.7625 475.0109,-572.5225 470.3638,-579.3561 475.6396,-580.7625"/>
<text text-anchor="middle" x="469.919" y="-615.4" font-family="Arial" font-size="10.00" fill="#000000">否</text>
</g>
<!-- identity -->
<g id="node9" class="node">
<title>identity</title>
<path fill="#fef3c7" stroke="#f59e0b" stroke-width="1.5" d="M238.1271,-429.6799C238.1271,-429.6799 52.1737,-359.8202 52.1737,-359.8202 46.557,-357.7101 46.557,-353.4899 52.1737,-351.3798 52.1737,-351.3798 238.1271,-281.5201 238.1271,-281.5201 243.7438,-279.41 254.9772,-279.41 260.5939,-281.5201 260.5939,-281.5201 446.5473,-351.3798 446.5473,-351.3798 452.164,-353.4899 452.164,-357.7101 446.5473,-359.8202 446.5473,-359.8202 260.5939,-429.6799 260.5939,-429.6799 254.9772,-431.79 243.7438,-431.79 238.1271,-429.6799"/>
<text text-anchor="middle" x="249.3605" y="-375.1" font-family="Arial" font-size="13.00" fill="#000000">可处理的外部入站？</text>
<text text-anchor="middle" x="249.3605" y="-359.5" font-family="Arial" font-size="13.00" fill="#000000">非 Draft / Comment / Outbound</text>
<text text-anchor="middle" x="249.3605" y="-343.9" font-family="Arial" font-size="13.00" fill="#000000">非 @dify.ai 内部来源</text>
<text text-anchor="middle" x="249.3605" y="-328.3" font-family="Arial" font-size="13.00" fill="#000000">有正文或附件</text>
</g>
<!-- event_dedupe&#45;&gt;identity -->
<g id="edge11" class="edge">
<title>event_dedupe&#45;&gt;identity</title>
<path fill="none" stroke="#2563eb" stroke-width="1.8" d="M249.3605,-493.8851C249.3605,-478.1451 249.3605,-460.0859 249.3605,-442.3246"/>
<polygon fill="#2563eb" stroke="#2563eb" stroke-width="1.8" points="252.0906,-441.9944 249.3605,-434.1945 246.6306,-441.9945 252.0906,-441.9944"/>
<text text-anchor="middle" x="254.919" y="-461" font-family="Arial" font-size="10.00" fill="#000000">否</text>
</g>
<!-- event_dedupe&#45;&gt;already -->
<g id="edge10" class="edge">
<title>event_dedupe&#45;&gt;already</title>
<path fill="none" stroke="#2563eb" stroke-width="1.8" d="M304.1981,-514.8386C370.2263,-483.0977 472.3605,-434 472.3605,-434 472.3605,-434 511.6939,-406.4667 543.7416,-384.0332"/>
<polygon fill="#2563eb" stroke="#2563eb" stroke-width="1.8" points="545.6284,-386.0449 550.4529,-379.3353 542.4973,-381.5719 545.6284,-386.0449"/>
<text text-anchor="middle" x="424.6395" y="-461" font-family="Arial" font-size="10.00" fill="#000000">是</text>
</g>
<!-- inbox -->
<g id="node10" class="node">
<title>inbox</title>
<path fill="#fef3c7" stroke="#f59e0b" stroke-width="1.5" d="M425.7953,-214.2001C425.7953,-214.2001 277.6507,-173.2007 277.6507,-173.2007 271.8681,-171.6004 271.8681,-168.3996 277.6507,-166.7993 277.6507,-166.7993 425.7953,-125.7999 425.7953,-125.7999 431.5779,-124.1995 443.1432,-124.1995 448.9258,-125.7999 448.9258,-125.7999 597.0703,-166.7993 597.0703,-166.7993 602.853,-168.3996 602.853,-171.6004 597.0703,-173.2007 597.0703,-173.2007 448.9258,-214.2001 448.9258,-214.2001 443.1432,-215.8005 431.5779,-215.8005 425.7953,-214.2001"/>
<text text-anchor="middle" x="437.3605" y="-173.9" font-family="Arial" font-size="13.00" fill="#000000">Front Inbox 检查</text>
<text text-anchor="middle" x="437.3605" y="-158.3" font-family="Arial" font-size="13.00" fill="#000000">包含 Support inb_f9fvf？</text>
</g>
<!-- identity&#45;&gt;inbox -->
<g id="edge13" class="edge">
<title>identity&#45;&gt;inbox</title>
<path fill="none" stroke="#2563eb" stroke-width="1.8" d="M307.0444,-298.6526C335.0412,-271.0131 368.117,-238.3596 393.9402,-212.866"/>
<polygon fill="#2563eb" stroke="#2563eb" stroke-width="1.8" points="396.0367,-214.6325 399.6695,-207.2098 392.2008,-210.747 396.0367,-214.6325"/>
<text text-anchor="middle" x="365.6395" y="-244.2" font-family="Arial" font-size="10.00" fill="#000000">是</text>
</g>
<!-- ignored -->
<g id="node14" class="node">
<title>ignored</title>
<path fill="#f1f5f9" stroke="#94a3b8" stroke-width="1.5" d="M318.1264,-62.7003C318.1264,-62.7003 174.5947,-62.7003 174.5947,-62.7003 168.5947,-62.7003 162.5947,-56.7003 162.5947,-50.7003 162.5947,-50.7003 162.5947,-12.0997 162.5947,-12.0997 162.5947,-6.0997 168.5947,-.0997 174.5947,-.0997 174.5947,-.0997 318.1264,-.0997 318.1264,-.0997 324.1264,-.0997 330.1264,-6.0997 330.1264,-12.0997 330.1264,-12.0997 330.1264,-50.7003 330.1264,-50.7003 330.1264,-56.7003 324.1264,-62.7003 318.1264,-62.7003"/>
<text text-anchor="middle" x="246.3605" y="-43.1" font-family="Arial" font-size="13.00" fill="#000000">ignored 也记成功 Event</text>
<text text-anchor="middle" x="246.3605" y="-27.5" font-family="Arial" font-size="13.00" fill="#000000">随后 complete_webhook</text>
<text text-anchor="middle" x="246.3605" y="-11.9" font-family="Arial" font-size="13.00" fill="#000000">避免无效事件重复进入</text>
</g>
<!-- identity&#45;&gt;ignored -->
<g id="edge12" class="edge">
<title>identity&#45;&gt;ignored</title>
<path fill="none" stroke="#64748b" stroke-width="1.8" d="M244.322,-279.1136C242.2135,-247.1054 240.2435,-217.2 240.2435,-217.2 240.2435,-217.2 240.2435,-122.8 240.2435,-122.8 240.2435,-122.8 242.0694,-95.5182 243.726,-70.7648"/>
<polygon fill="#64748b" stroke="#64748b" stroke-width="1.8" points="246.4584,-70.8196 244.2554,-62.8547 241.0105,-70.455 246.4584,-70.8196"/>
<text text-anchor="middle" x="245.919" y="-167" font-family="Arial" font-size="10.00" fill="#000000">否</text>
</g>
<!-- next -->
<g id="node11" class="node">
<title>next</title>
<path fill="#d1fae5" stroke="#34d399" stroke-width="1.5" d="M469.3113,-55.1004C469.3113,-55.1004 383.4097,-55.1004 383.4097,-55.1004 377.4097,-55.1004 371.4097,-49.1004 371.4097,-43.1004 371.4097,-43.1004 371.4097,-19.6996 371.4097,-19.6996 371.4097,-13.6996 377.4097,-7.6996 383.4097,-7.6996 383.4097,-7.6996 469.3113,-7.6996 469.3113,-7.6996 475.3113,-7.6996 481.3113,-13.6996 481.3113,-19.6996 481.3113,-19.6996 481.3113,-43.1004 481.3113,-43.1004 481.3113,-49.1004 475.3113,-55.1004 469.3113,-55.1004"/>
<text text-anchor="middle" x="426.3605" y="-35.3" font-family="Arial" font-size="13.00" fill="#000000">交给阶段 ③</text>
<text text-anchor="middle" x="426.3605" y="-19.7" font-family="Arial" font-size="13.00" fill="#000000">handle_email()</text>
</g>
<!-- inbox&#45;&gt;next -->
<g id="edge16" class="edge">
<title>inbox&#45;&gt;next</title>
<path fill="none" stroke="#2563eb" stroke-width="1.8" d="M433.6671,-123.4626C432.0866,-103.549 430.2823,-80.8144 428.8621,-62.9199"/>
<polygon fill="#2563eb" stroke="#2563eb" stroke-width="1.8" points="431.5774,-62.6258 428.2388,-55.0662 426.1346,-63.0578 431.5774,-62.6258"/>
<text text-anchor="middle" x="442.918" y="-89.8" font-family="Arial" font-size="10.00" fill="#000000">允许</text>
</g>
<!-- inbox&#45;&gt;ignored -->
<g id="edge14" class="edge">
<title>inbox&#45;&gt;ignored</title>
<path fill="none" stroke="#64748b" stroke-width="1.8" d="M389.6559,-135.3829C361.0984,-114.66 324.8583,-88.3623 295.9688,-67.3984"/>
<polygon fill="#64748b" stroke="#64748b" stroke-width="1.8" points="297.463,-65.1097 289.5466,-62.7382 294.2563,-69.5288 297.463,-65.1097"/>
<text text-anchor="middle" x="364.7035" y="-89.8" font-family="Arial" font-size="10.00" fill="#000000">不在 Support</text>
</g>
<!-- transient -->
<g id="node15" class="node">
<title>transient</title>
<path fill="#ffe4e6" stroke="#fb7185" stroke-width="1.5" d="M687.815,-55.1004C687.815,-55.1004 522.9061,-55.1004 522.9061,-55.1004 516.9061,-55.1004 510.9061,-49.1004 510.9061,-43.1004 510.9061,-43.1004 510.9061,-19.6996 510.9061,-19.6996 510.9061,-13.6996 516.9061,-7.6996 522.9061,-7.6996 522.9061,-7.6996 687.815,-7.6996 687.815,-7.6996 693.815,-7.6996 699.815,-13.6996 699.815,-19.6996 699.815,-19.6996 699.815,-43.1004 699.815,-43.1004 699.815,-49.1004 693.815,-55.1004 687.815,-55.1004"/>
<text text-anchor="middle" x="605.3605" y="-35.3" font-family="Arial" font-size="13.00" fill="#000000">Front Inbox 检查瞬时失败</text>
<text text-anchor="middle" x="605.3605" y="-19.7" font-family="Arial" font-size="13.00" fill="#000000">HTTP 503 → 阶段 ⑧ Retry</text>
</g>
<!-- inbox&#45;&gt;transient -->
<g id="edge15" class="edge">
<title>inbox&#45;&gt;transient</title>
<path fill="none" stroke="#e11d48" stroke-width="1.8" d="M480.6247,-134.3071C508.5264,-111.2882 544.34,-81.7419 570.4291,-60.2184"/>
<polygon fill="#e11d48" stroke="#e11d48" stroke-width="1.8" points="572.2278,-62.2737 576.5072,-55.204 568.7531,-58.062 572.2278,-62.2737"/>
<text text-anchor="middle" x="561.7155" y="-89.8" font-family="Arial" font-size="10.00" fill="#000000">瞬时错误</text>
</g>
</g>
</svg>
