<?xml version="1.0" encoding="UTF-8" standalone="no"?>
<!DOCTYPE svg PUBLIC "-//W3C//DTD SVG 1.1//EN"
 "http://www.w3.org/Graphics/SVG/1.1/DTD/svg11.dtd">
<!-- Generated by graphviz version 2.40.1 (20161225.0304)
 -->
<!-- Title: ClassificationRouting Pages: 1 -->
<svg width="832pt" height="1529pt"
 viewBox="0.00 0.00 831.53 1529.20" xmlns="http://www.w3.org/2000/svg" xmlns:xlink="http://www.w3.org/1999/xlink">
<g id="graph0" class="graph" transform="scale(1 1) rotate(0) translate(25.2 1504)">
<title>ClassificationRouting</title>
<polygon fill="#f8fafc" stroke="transparent" points="-25.2,25.2 -25.2,-1504 806.3266,-1504 806.3266,25.2 -25.2,25.2"/>
<text text-anchor="middle" x="370.4012" y="-1449.6" font-family="Arial" font-size="28.00" fill="#000000">④ 分类与决策 · LLM 结构化分类 + Python RouteDecision</text>
<!-- context -->
<g id="node1" class="node">
<title>context</title>
<path fill="#ede9fe" stroke="#a78bfa" stroke-width="1.5" d="M406.2769,-1437.2C406.2769,-1437.2 274.6359,-1437.2 274.6359,-1437.2 268.6359,-1437.2 262.6359,-1431.2 262.6359,-1425.2 262.6359,-1425.2 262.6359,-1413.2 262.6359,-1413.2 262.6359,-1407.2 268.6359,-1401.2 274.6359,-1401.2 274.6359,-1401.2 406.2769,-1401.2 406.2769,-1401.2 412.2769,-1401.2 418.2769,-1407.2 418.2769,-1413.2 418.2769,-1413.2 418.2769,-1425.2 418.2769,-1425.2 418.2769,-1431.2 412.2769,-1437.2 406.2769,-1437.2"/>
<text text-anchor="middle" x="340.4564" y="-1415.6" font-family="Arial" font-size="12.00" fill="#000000">阶段 ③ Context Bundle</text>
</g>
<!-- edu -->
<g id="node2" class="node">
<title>edu</title>
<path fill="#fef3c7" stroke="#f59e0b" stroke-width="1.5" d="M328.7386,-1351.4139C328.7386,-1351.4139 159.2187,-1313.9871 159.2187,-1313.9871 153.3598,-1312.6935 153.3598,-1310.1065 159.2187,-1308.8129 159.2187,-1308.8129 328.7386,-1271.3861 328.7386,-1271.3861 334.5975,-1270.0926 346.3153,-1270.0926 352.1742,-1271.3861 352.1742,-1271.3861 521.6941,-1308.8129 521.6941,-1308.8129 527.553,-1310.1065 527.553,-1312.6935 521.6941,-1313.9871 521.6941,-1313.9871 352.1742,-1351.4139 352.1742,-1351.4139 346.3153,-1352.7074 334.5975,-1352.7074 328.7386,-1351.4139"/>
<text text-anchor="middle" x="340.4564" y="-1315" font-family="Arial" font-size="12.00" fill="#000000">现有非 Education 会话</text>
<text text-anchor="middle" x="340.4564" y="-1300.6" font-family="Arial" font-size="12.00" fill="#000000">最新回复明确切换到 Education？</text>
</g>
<!-- context&#45;&gt;edu -->
<g id="edge1" class="edge">
<title>context&#45;&gt;edu</title>
<path fill="none" stroke="#7c3aed" stroke-width="1.7" d="M340.4564,-1400.9132C340.4564,-1390.0668 340.4564,-1375.7379 340.4564,-1361.7317"/>
<polygon fill="#7c3aed" stroke="#7c3aed" stroke-width="1.7" points="343.0815,-1361.5078 340.4564,-1354.0078 337.8315,-1361.5079 343.0815,-1361.5078"/>
</g>
<!-- edu_result -->
<g id="node3" class="node">
<title>edu_result</title>
<path fill="#dbeafe" stroke="#60a5fa" stroke-width="1.5" d="M433.6857,-1102.6011C433.6857,-1102.6011 185.2271,-1102.6011 185.2271,-1102.6011 179.2271,-1102.6011 173.2271,-1096.6011 173.2271,-1090.6011 173.2271,-1090.6011 173.2271,-1043.3989 173.2271,-1043.3989 173.2271,-1037.3989 179.2271,-1031.3989 185.2271,-1031.3989 185.2271,-1031.3989 433.6857,-1031.3989 433.6857,-1031.3989 439.6857,-1031.3989 445.6857,-1037.3989 445.6857,-1043.3989 445.6857,-1043.3989 445.6857,-1090.6011 445.6857,-1090.6011 445.6857,-1096.6011 439.6857,-1102.6011 433.6857,-1102.6011"/>
<text text-anchor="middle" x="309.4564" y="-1085" font-family="Arial" font-size="12.00" fill="#000000">确定性 Education 分类</text>
<text text-anchor="middle" x="309.4564" y="-1070.6" font-family="Arial" font-size="12.00" fill="#000000">how_to_apply / rejected / no_discount</text>
<text text-anchor="middle" x="309.4564" y="-1056.2" font-family="Arial" font-size="12.00" fill="#000000">email_expired_graduated / cancel_subscription</text>
<text text-anchor="middle" x="309.4564" y="-1041.8" font-family="Arial" font-size="12.00" fill="#000000">confidence=1.0</text>
</g>
<!-- edu&#45;&gt;edu_result -->
<g id="edge2" class="edge">
<title>edu&#45;&gt;edu_result</title>
<path fill="none" stroke="#7c3aed" stroke-width="1.7" d="M335.1977,-1269.9409C329.564,-1225.5254 320.6631,-1155.3518 314.9431,-1110.256"/>
<polygon fill="#7c3aed" stroke="#7c3aed" stroke-width="1.7" points="317.5315,-1109.8012 313.9835,-1102.6911 312.3232,-1110.4619 317.5315,-1109.8012"/>
<text text-anchor="middle" x="337.2075" y="-1237.5" font-family="Arial" font-size="9.00" fill="#000000">是</text>
</g>
<!-- llm -->
<g id="node4" class="node">
<title>llm</title>
<path fill="#ede9fe" stroke="#a78bfa" stroke-width="1.5" d="M541.4744,-1211.8C541.4744,-1211.8 381.4384,-1211.8 381.4384,-1211.8 375.4384,-1211.8 369.4384,-1205.8 369.4384,-1199.8 369.4384,-1199.8 369.4384,-1137.8 369.4384,-1137.8 369.4384,-1131.8 375.4384,-1125.8 381.4384,-1125.8 381.4384,-1125.8 541.4744,-1125.8 541.4744,-1125.8 547.4744,-1125.8 553.4744,-1131.8 553.4744,-1137.8 553.4744,-1137.8 553.4744,-1199.8 553.4744,-1199.8 553.4744,-1205.8 547.4744,-1211.8 541.4744,-1211.8"/>
<text text-anchor="middle" x="461.4564" y="-1194" font-family="Arial" font-size="12.00" fill="#000000">LLM Classification</text>
<text text-anchor="middle" x="461.4564" y="-1179.6" font-family="Arial" font-size="12.00" fill="#000000">skills/classify.md</text>
<text text-anchor="middle" x="461.4564" y="-1165.2" font-family="Arial" font-size="12.00" fill="#000000">完整会话 + 最新消息 + 图片</text>
<text text-anchor="middle" x="461.4564" y="-1150.8" font-family="Arial" font-size="12.00" fill="#000000">Case Memory 作为检索证据</text>
<text text-anchor="middle" x="461.4564" y="-1136.4" font-family="Arial" font-size="12.00" fill="#000000">temperature=0</text>
</g>
<!-- edu&#45;&gt;llm -->
<g id="edge3" class="edge">
<title>edu&#45;&gt;llm</title>
<path fill="none" stroke="#7c3aed" stroke-width="1.7" d="M370.9898,-1275.416C385.8364,-1257.9192 403.9039,-1236.6263 419.9774,-1217.6835"/>
<polygon fill="#7c3aed" stroke="#7c3aed" stroke-width="1.7" points="422.045,-1219.3041 424.8959,-1211.887 418.0419,-1215.9073 422.045,-1219.3041"/>
<text text-anchor="middle" x="430.9656" y="-1237.5" font-family="Arial" font-size="9.00" fill="#000000">否 / 新会话</text>
</g>
<!-- result -->
<g id="node7" class="node">
<title>result</title>
<path fill="#e0e7ff" stroke="#60a5fa" stroke-width="1.5" d="M442.2506,-742.0011C442.2506,-742.0011 212.6622,-742.0011 212.6622,-742.0011 206.6622,-742.0011 200.6622,-736.0011 200.6622,-730.0011 200.6622,-730.0011 200.6622,-682.7989 200.6622,-682.7989 200.6622,-676.7989 206.6622,-670.7989 212.6622,-670.7989 212.6622,-670.7989 442.2506,-670.7989 442.2506,-670.7989 448.2506,-670.7989 454.2506,-676.7989 454.2506,-682.7989 454.2506,-682.7989 454.2506,-730.0011 454.2506,-730.0011 454.2506,-736.0011 448.2506,-742.0011 442.2506,-742.0011"/>
<text text-anchor="middle" x="327.4564" y="-724.4" font-family="Arial" font-size="12.00" fill="#000000">ClassificationResult</text>
<text text-anchor="middle" x="327.4564" y="-710" font-family="Arial" font-size="12.00" fill="#000000">category · sub_type · paid · premium</text>
<text text-anchor="middle" x="327.4564" y="-695.6" font-family="Arial" font-size="12.00" fill="#000000">urgency · sender · summary · confidence</text>
<text text-anchor="middle" x="327.4564" y="-681.2" font-family="Arial" font-size="12.00" fill="#000000">flags · secondary_intents · evidence</text>
</g>
<!-- edu_result&#45;&gt;result -->
<g id="edge7" class="edge">
<title>edu_result&#45;&gt;result</title>
<path fill="none" stroke="#7c3aed" stroke-width="1.7" d="M311.2481,-1031.106C314.5771,-964.4162 321.7031,-821.6584 325.2939,-749.7231"/>
<polygon fill="#7c3aed" stroke="#7c3aed" stroke-width="1.7" points="327.9197,-749.7704 325.6719,-742.1489 322.6762,-749.5086 327.9197,-749.7704"/>
</g>
<!-- parse -->
<g id="node5" class="node">
<title>parse</title>
<path fill="#f3e8ff" stroke="#a78bfa" stroke-width="1.5" d="M538.326,-1008.0011C538.326,-1008.0011 394.5868,-1008.0011 394.5868,-1008.0011 388.5868,-1008.0011 382.5868,-1002.0011 382.5868,-996.0011 382.5868,-996.0011 382.5868,-948.7989 382.5868,-948.7989 382.5868,-942.7989 388.5868,-936.7989 394.5868,-936.7989 394.5868,-936.7989 538.326,-936.7989 538.326,-936.7989 544.326,-936.7989 550.326,-942.7989 550.326,-948.7989 550.326,-948.7989 550.326,-996.0011 550.326,-996.0011 550.326,-1002.0011 544.326,-1008.0011 538.326,-1008.0011"/>
<text text-anchor="middle" x="466.4564" y="-990.4" font-family="Arial" font-size="12.00" fill="#000000">健壮 JSON 解析</text>
<text text-anchor="middle" x="466.4564" y="-976" font-family="Arial" font-size="12.00" fill="#000000">1. 纯 JSON Object</text>
<text text-anchor="middle" x="466.4564" y="-961.6" font-family="Arial" font-size="12.00" fill="#000000">2. JSON Code Fence</text>
<text text-anchor="middle" x="466.4564" y="-947.2" font-family="Arial" font-size="12.00" fill="#000000">3. 文本中的 Balanced Object</text>
</g>
<!-- llm&#45;&gt;parse -->
<g id="edge4" class="edge">
<title>llm&#45;&gt;parse</title>
<path fill="none" stroke="#7c3aed" stroke-width="1.7" d="M462.5537,-1125.6992C463.384,-1093.0838 464.5196,-1048.4788 465.3517,-1015.7922"/>
<polygon fill="#7c3aed" stroke="#7c3aed" stroke-width="1.7" points="467.9789,-1015.7374 465.5457,-1008.173 462.7306,-1015.6038 467.9789,-1015.7374"/>
</g>
<!-- normalize -->
<g id="node6" class="node">
<title>normalize</title>
<path fill="#f3e8ff" stroke="#a78bfa" stroke-width="1.5" d="M565.3632,-889.8008C565.3632,-889.8008 367.5496,-889.8008 367.5496,-889.8008 361.5496,-889.8008 355.5496,-883.8008 355.5496,-877.8008 355.5496,-877.8008 355.5496,-800.9992 355.5496,-800.9992 355.5496,-794.9992 361.5496,-788.9992 367.5496,-788.9992 367.5496,-788.9992 565.3632,-788.9992 565.3632,-788.9992 571.3632,-788.9992 577.3632,-794.9992 577.3632,-800.9992 577.3632,-800.9992 577.3632,-877.8008 577.3632,-877.8008 577.3632,-883.8008 571.3632,-889.8008 565.3632,-889.8008"/>
<text text-anchor="middle" x="466.4564" y="-871.8" font-family="Arial" font-size="12.00" fill="#000000">normalize_classification()</text>
<text text-anchor="middle" x="466.4564" y="-857.4" font-family="Arial" font-size="12.00" fill="#000000">Category 必须在 16 类白名单</text>
<text text-anchor="middle" x="466.4564" y="-843" font-family="Arial" font-size="12.00" fill="#000000">Urgency 仅 normal/high</text>
<text text-anchor="middle" x="466.4564" y="-828.6" font-family="Arial" font-size="12.00" fill="#000000">Bool/List/字符串规范化</text>
<text text-anchor="middle" x="466.4564" y="-814.2" font-family="Arial" font-size="12.00" fill="#000000">Confidence Clamp 0..1</text>
<text text-anchor="middle" x="466.4564" y="-799.8" font-family="Arial" font-size="12.00" fill="#000000">解析失败/非法 Category → unclear</text>
</g>
<!-- parse&#45;&gt;normalize -->
<g id="edge5" class="edge">
<title>parse&#45;&gt;normalize</title>
<path fill="none" stroke="#7c3aed" stroke-width="1.7" d="M466.4564,-936.7584C466.4564,-924.6659 466.4564,-910.8242 466.4564,-897.4464"/>
<polygon fill="#7c3aed" stroke="#7c3aed" stroke-width="1.7" points="469.0815,-897.1401 466.4564,-889.6401 463.8315,-897.1402 469.0815,-897.1401"/>
</g>
<!-- normalize&#45;&gt;result -->
<g id="edge6" class="edge">
<title>normalize&#45;&gt;result</title>
<path fill="none" stroke="#7c3aed" stroke-width="1.7" d="M413.9065,-789.1184C399.6453,-775.4728 384.3701,-760.857 370.6875,-747.7651"/>
<polygon fill="#7c3aed" stroke="#7c3aed" stroke-width="1.7" points="372.1625,-745.5433 364.9287,-742.2548 368.5329,-749.3366 372.1625,-745.5433"/>
</g>
<!-- conflict -->
<g id="node8" class="node">
<title>conflict</title>
<path fill="#fef3c7" stroke="#f59e0b" stroke-width="1.5" d="M315.8335,-620.4162C315.8335,-620.4162 173.1839,-583.7847 173.1839,-583.7847 167.3724,-582.2923 167.3724,-579.3077 173.1839,-577.8153 173.1839,-577.8153 315.8335,-541.1838 315.8335,-541.1838 321.645,-539.6914 333.2678,-539.6914 339.0793,-541.1838 339.0793,-541.1838 481.7289,-577.8153 481.7289,-577.8153 487.5404,-579.3077 487.5404,-582.2923 481.7289,-583.7847 481.7289,-583.7847 339.0793,-620.4162 339.0793,-620.4162 333.2678,-621.9086 321.645,-621.9086 315.8335,-620.4162"/>
<text text-anchor="middle" x="327.4564" y="-584.4" font-family="Arial" font-size="12.00" fill="#000000">spam + marketplace/plugin</text>
<text text-anchor="middle" x="327.4564" y="-570" font-family="Arial" font-size="12.00" fill="#000000">冲突？</text>
</g>
<!-- result&#45;&gt;conflict -->
<g id="edge8" class="edge">
<title>result&#45;&gt;conflict</title>
<path fill="none" stroke="#7c3aed" stroke-width="1.7" d="M327.4564,-670.744C327.4564,-658.4975 327.4564,-644.5456 327.4564,-631.3453"/>
<polygon fill="#7c3aed" stroke="#7c3aed" stroke-width="1.7" points="330.0815,-631.1786 327.4564,-623.6786 324.8315,-631.1786 330.0815,-631.1786"/>
</g>
<!-- explicit -->
<g id="node9" class="node">
<title>explicit</title>
<path fill="#fef3c7" stroke="#f59e0b" stroke-width="1.5" d="M186.5766,-479.4059C186.5766,-479.4059 11.9234,-454.4945 11.9234,-454.4945 5.9835,-453.6472 5.9835,-451.9528 11.9234,-451.1055 11.9234,-451.1055 186.5766,-426.1941 186.5766,-426.1941 192.5165,-425.3469 204.3963,-425.3469 210.3362,-426.1941 210.3362,-426.1941 384.9894,-451.1055 384.9894,-451.1055 390.9293,-451.9528 390.9293,-453.6472 384.9894,-454.4945 384.9894,-454.4945 210.3362,-479.4059 210.3362,-479.4059 204.3963,-480.2531 192.5165,-480.2531 186.5766,-479.4059"/>
<text text-anchor="middle" x="198.4564" y="-449.2" font-family="Arial" font-size="12.00" fill="#000000">Evidence 明确申请/上架/下架？</text>
</g>
<!-- conflict&#45;&gt;explicit -->
<g id="edge9" class="edge">
<title>conflict&#45;&gt;explicit</title>
<path fill="none" stroke="#7c3aed" stroke-width="1.7" d="M293.2254,-546.8344C273.3379,-527.101 248.4852,-502.441 229.2205,-483.3256"/>
<polygon fill="#7c3aed" stroke="#7c3aed" stroke-width="1.7" points="230.6057,-481.0021 223.4328,-477.5828 226.9078,-484.7288 230.6057,-481.0021"/>
<text text-anchor="middle" x="264.2075" y="-506.9" font-family="Arial" font-size="9.00" fill="#000000">是</text>
</g>
<!-- priority -->
<g id="node10" class="node">
<title>priority</title>
<path fill="#fef3c7" stroke="#f59e0b" stroke-width="1.5" d="M315.6655,-354.47C315.6655,-354.47 189.6321,-330.6303 189.6321,-330.6303 183.7366,-329.5152 183.7366,-327.2848 189.6321,-326.1697 189.6321,-326.1697 315.6655,-302.33 315.6655,-302.33 321.5609,-301.2148 333.3519,-301.2148 339.2473,-302.33 339.2473,-302.33 465.2807,-326.1697 465.2807,-326.1697 471.1762,-327.2848 471.1762,-329.5152 465.2807,-330.6303 465.2807,-330.6303 339.2473,-354.47 339.2473,-354.47 333.3519,-355.5852 321.5609,-355.5852 315.6655,-354.47"/>
<text text-anchor="middle" x="327.4564" y="-324.8" font-family="Arial" font-size="12.00" fill="#000000">Python 优先路由顺序</text>
</g>
<!-- conflict&#45;&gt;priority -->
<g id="edge11" class="edge">
<title>conflict&#45;&gt;priority</title>
<path fill="none" stroke="#7c3aed" stroke-width="1.7" d="M357.0717,-545.6848C381.2558,-517.0093 411.4564,-481.2 411.4564,-481.2 411.4564,-481.2 411.4564,-424.4 411.4564,-424.4 411.4564,-424.4 378.5982,-386.8478 353.9832,-358.7163"/>
<polygon fill="#7c3aed" stroke="#7c3aed" stroke-width="1.7" points="355.7848,-356.789 348.8705,-352.8732 351.8338,-360.2462 355.7848,-356.789"/>
<text text-anchor="middle" x="416.4591" y="-450.1" font-family="Arial" font-size="9.00" fill="#000000">否</text>
</g>
<!-- explicit&#45;&gt;priority -->
<g id="edge10" class="edge">
<title>explicit&#45;&gt;priority</title>
<path fill="none" stroke="#7c3aed" stroke-width="1.7" d="M224.2514,-427.9248C245.2639,-407.6616 274.9729,-379.012 297.1239,-357.6509"/>
<polygon fill="#7c3aed" stroke="#7c3aed" stroke-width="1.7" points="299.0062,-359.4825 302.5827,-352.3867 295.3618,-355.7034 299.0062,-359.4825"/>
<text text-anchor="middle" x="302.4637" y="-393.3" font-family="Arial" font-size="9.00" fill="#000000">是→partnership</text>
<text text-anchor="middle" x="302.4637" y="-382.5" font-family="Arial" font-size="9.00" fill="#000000">否→unclear</text>
</g>
<!-- deterministic -->
<g id="node11" class="node">
<title>deterministic</title>
<path fill="#f3e8ff" stroke="#a78bfa" stroke-width="1.5" d="M315.3431,-243.1002C315.3431,-243.1002 73.5697,-243.1002 73.5697,-243.1002 67.5697,-243.1002 61.5697,-237.1002 61.5697,-231.1002 61.5697,-231.1002 61.5697,-140.4998 61.5697,-140.4998 61.5697,-134.4998 67.5697,-128.4998 73.5697,-128.4998 73.5697,-128.4998 315.3431,-128.4998 315.3431,-128.4998 321.3431,-128.4998 327.3431,-134.4998 327.3431,-140.4998 327.3431,-140.4998 327.3431,-231.1002 327.3431,-231.1002 327.3431,-237.1002 321.3431,-243.1002 315.3431,-243.1002"/>
<text text-anchor="middle" x="194.4564" y="-225.4" font-family="Arial" font-size="12.00" fill="#000000">handled_before_skill=true</text>
<text text-anchor="middle" x="194.4564" y="-211" font-family="Arial" font-size="12.00" fill="#000000">Creator Collaboration → Marketing</text>
<text text-anchor="middle" x="194.4564" y="-196.6" font-family="Arial" font-size="12.00" fill="#000000">Clear Spam → Archive</text>
<text text-anchor="middle" x="194.4564" y="-182.2" font-family="Arial" font-size="12.00" fill="#000000">Unclear → Bobby</text>
<text text-anchor="middle" x="194.4564" y="-167.8" font-family="Arial" font-size="12.00" fill="#000000">Legal → Geyan</text>
<text text-anchor="middle" x="194.4564" y="-153.4" font-family="Arial" font-size="12.00" fill="#000000">Security / Marketing / Business → Move Inbox</text>
<text text-anchor="middle" x="194.4564" y="-139" font-family="Arial" font-size="12.00" fill="#000000">Partnership → marketing@dify.ai</text>
</g>
<!-- priority&#45;&gt;deterministic -->
<g id="edge12" class="edge">
<title>priority&#45;&gt;deterministic</title>
<path fill="none" stroke="#7c3aed" stroke-width="1.7" d="M304.8948,-304.2099C290.6687,-288.9569 271.5867,-268.4976 253.2895,-248.8797"/>
<polygon fill="#7c3aed" stroke="#7c3aed" stroke-width="1.7" points="255.1894,-247.0681 248.1543,-243.3738 251.3501,-250.6489 255.1894,-247.0681"/>
<text text-anchor="middle" x="311.9588" y="-268.9" font-family="Arial" font-size="9.00" fill="#000000">命中确定性策略</text>
</g>
<!-- skill -->
<g id="node12" class="node">
<title>skill</title>
<path fill="#d1fae5" stroke="#34d399" stroke-width="1.5" d="M554.3247,-221.4011C554.3247,-221.4011 368.5881,-221.4011 368.5881,-221.4011 362.5881,-221.4011 356.5881,-215.4011 356.5881,-209.4011 356.5881,-209.4011 356.5881,-162.1989 356.5881,-162.1989 356.5881,-156.1989 362.5881,-150.1989 368.5881,-150.1989 368.5881,-150.1989 554.3247,-150.1989 554.3247,-150.1989 560.3247,-150.1989 566.3247,-156.1989 566.3247,-162.1989 566.3247,-162.1989 566.3247,-209.4011 566.3247,-209.4011 566.3247,-215.4011 560.3247,-221.4011 554.3247,-221.4011"/>
<text text-anchor="middle" x="461.4564" y="-203.8" font-family="Arial" font-size="12.00" fill="#000000">handled_before_skill=false</text>
<text text-anchor="middle" x="461.4564" y="-189.4" font-family="Arial" font-size="12.00" fill="#000000">生成对应 Category Skill Route</text>
<text text-anchor="middle" x="461.4564" y="-175" font-family="Arial" font-size="12.00" fill="#000000">Customer Action 默认 Draft/None</text>
<text text-anchor="middle" x="461.4564" y="-160.6" font-family="Arial" font-size="12.00" fill="#000000">非 Spam 默认 Keep Open</text>
</g>
<!-- priority&#45;&gt;skill -->
<g id="edge13" class="edge">
<title>priority&#45;&gt;skill</title>
<path fill="none" stroke="#7c3aed" stroke-width="1.7" d="M350.1877,-304.2099C369.9722,-283.1556 399.0783,-252.1814 422.5597,-227.193"/>
<polygon fill="#7c3aed" stroke="#7c3aed" stroke-width="1.7" points="424.5614,-228.8962 427.7844,-221.633 420.7355,-225.301 424.5614,-228.8962"/>
<text text-anchor="middle" x="411.8801" y="-268.9" font-family="Arial" font-size="9.00" fill="#000000">其他 Category</text>
</g>
<!-- route -->
<g id="node13" class="node">
<title>route</title>
<path fill="#d1fae5" stroke="#34d399" stroke-width="1.5" d="M588.9028,-71.4011C588.9028,-71.4011 334.01,-71.4011 334.01,-71.4011 328.01,-71.4011 322.01,-65.4011 322.01,-59.4011 322.01,-59.4011 322.01,-12.1989 322.01,-12.1989 322.01,-6.1989 328.01,-.1989 334.01,-.1989 334.01,-.1989 588.9028,-.1989 588.9028,-.1989 594.9028,-.1989 600.9028,-6.1989 600.9028,-12.1989 600.9028,-12.1989 600.9028,-59.4011 600.9028,-59.4011 600.9028,-65.4011 594.9028,-71.4011 588.9028,-71.4011"/>
<text text-anchor="middle" x="461.4564" y="-53.8" font-family="Arial" font-size="12.00" fill="#000000">RouteDecision</text>
<text text-anchor="middle" x="461.4564" y="-39.4" font-family="Arial" font-size="12.00" fill="#000000">name · tool_name/args · state step</text>
<text text-anchor="middle" x="461.4564" y="-25" font-family="Arial" font-size="12.00" fill="#000000">waiting · keep_open · close authorization</text>
<text text-anchor="middle" x="461.4564" y="-10.6" font-family="Arial" font-size="12.00" fill="#000000">customer action · internal/inbox target · reason</text>
</g>
<!-- deterministic&#45;&gt;route -->
<g id="edge14" class="edge">
<title>deterministic&#45;&gt;route</title>
<path fill="none" stroke="#7c3aed" stroke-width="1.7" d="M296.5405,-128.4494C328.16,-110.6856 362.2723,-91.5214 391.2216,-75.2577"/>
<polygon fill="#7c3aed" stroke="#7c3aed" stroke-width="1.7" points="392.8276,-77.3665 398.0806,-71.4044 390.2561,-72.7893 392.8276,-77.3665"/>
</g>
<!-- skill&#45;&gt;route -->
<g id="edge15" class="edge">
<title>skill&#45;&gt;route</title>
<path fill="none" stroke="#7c3aed" stroke-width="1.7" d="M461.4564,-149.8713C461.4564,-128.6278 461.4564,-101.582 461.4564,-79.1575"/>
<polygon fill="#7c3aed" stroke="#7c3aed" stroke-width="1.7" points="464.0815,-78.9355 461.4564,-71.4356 458.8315,-78.9356 464.0815,-78.9355"/>
</g>
<!-- confidence -->
<g id="node14" class="node">
<title>confidence</title>
<path fill="#f1f5f9" stroke="#94a3b8" stroke-width="1.5" d="M769.2971,-207.1005C769.2971,-207.1005 607.6157,-207.1005 607.6157,-207.1005 601.6157,-207.1005 595.6157,-201.1005 595.6157,-195.1005 595.6157,-195.1005 595.6157,-176.4995 595.6157,-176.4995 595.6157,-170.4995 601.6157,-164.4995 607.6157,-164.4995 607.6157,-164.4995 769.2971,-164.4995 769.2971,-164.4995 775.2971,-164.4995 781.2971,-170.4995 781.2971,-176.4995 781.2971,-176.4995 781.2971,-195.1005 781.2971,-195.1005 781.2971,-201.1005 775.2971,-207.1005 769.2971,-207.1005"/>
<text text-anchor="middle" x="688.4564" y="-189.4" font-family="Arial" font-size="12.00" fill="#000000">Confidence 只用于观测</text>
<text text-anchor="middle" x="688.4564" y="-175" font-family="Arial" font-size="12.00" fill="#000000">绝不作为数字阈值控制路由</text>
</g>
<!-- confidence&#45;&gt;route -->
<g id="edge16" class="edge">
<title>confidence&#45;&gt;route</title>
<path fill="none" stroke="#64748b" stroke-width="1.7" stroke-dasharray="5,2" d="M655.9328,-164.3087C621.0674,-141.2698 564.9303,-104.1748 521.9107,-75.7478"/>
<polygon fill="#64748b" stroke="#64748b" stroke-width="1.7" points="523.0984,-73.3863 515.3939,-71.4415 520.204,-77.7664 523.0984,-73.3863"/>
<text text-anchor="middle" x="578.4623" y="-97.3" font-family="Arial" font-size="9.00" fill="#000000">仅记录</text>
</g>
</g>
</svg>
